RELEASE NAME........: A.Norml.Life.2011 .DVDRip.XviD.AC3-PRESTiGE
RELEASE DATE........:
DVD DATE............:
THEATRE DATE........: (2011)
FILE SIZE...........  726 MiB 
SIZE................. 726 MiB
SOURCE...............A.Norml.Life.2011.NTSC.DVDR THANX
AUDIO...............:same as above BIG THANKS
......................................................................................
General
Complete name                    : A.Norml.Life.2011 .DVDRip.XviD.AC3-PRESTiGE.avi
Format                           : AVI
Format/Info                      : Audio Video Interleave
File size                        : 726 MiB
Duration                         : 59mn 46s
Overall bit rate                 : 1 698 Kbps
Writing application              : VirtualDubMod 1.5.10.2 (build 2540/release)
Writing library                  : VirtualDubMod build 2540/release

Video
ID                               : 0
Format                           : MPEG-4 Visual
Format profile                   : Advanced Simple@L5
Format settings, BVOP            : 2
Format settings, QPel            : No
Format settings, GMC             : No warppoints
Format settings, Matrix          : Default (H.263)
Codec ID                         : XVID
Codec ID/Hint                    : XviD
Duration                         : 59mn 46s
Bit rate                         : 1 494 Kbps
Width                            : 720 pixels
Height                           : 400 pixels
Display aspect ratio             : 16:9
Frame rate                       : 29.970 fps
Color space                      : YUV
Chroma subsampling               : 4:2:0
Bit depth                        : 8 bits
Scan type                        : Progressive
Compression mode                 : Lossy
Bits/(Pixel*Frame)               : 0.173
Stream size                      : 639 MiB (88%)
Writing library                  : XviD 1.2.1 (UTC 2008-12-04)

Audio
ID                               : 1
Format                           : AC-3
Format/Info                      : Audio Coding 3
Mode extension                   : CM (complete main)
Codec ID                         : 2000
Duration                         : 59mn 46s
Bit rate mode                    : Constant
Bit rate                         : 192 Kbps
Channel(s)                       : 2 channels
Channel positions                : Front: L R
Sampling rate                    : 48.0 KHz
Bit depth                        : 16 bits
Compression mode                 : Lossy
Stream size                      : 82.1 MiB (11%)
Alignment                        : Split accross interleaves
Interleave, duration             : 33 ms (1.00 video frame)
Interleave, preload duration     : 500 ms
..................................................................................... 
http://www.imdb.com/title/tt1729609/
PLOT:
A documentary on the current state of medical marijuana in America. Personal stories from patients, doctors and caregivers verify its medical effectiveness while leading activist rally support to end prohibition. 
CAST:
Russ Belville 	... 	Himself
Dominic Corva 	... 	Himself
Tonya Davis 	... 	Herself
Stephen W. Dillon 	... 	Himself
Jodie Emery 	... 	Herself
Sabrina Fendrick 	... 	Herself
Gatewood Galbraith 	... 	Himself
Douglas Hiatt 	... 	Himself
Frank H. Lucido 	... 	Himself
Ray Manzarek 	... 	Himself
Todd McCormick 	... 	Himself
Vivian McPeak 	... 	Himself
Barnes Mike 	... 	Himself
Elvy Mussikka 	... 	Herself
William G. Panzer 	... 	Himself 


Greetz:
| Bigguy | DiLLoN | Thorn | Flawl3ss | SceneLovers | Lady | BMB | akosipalos | HiTM4N | PA4U2C | JungleDave | Godfather23 | Dreamer | CTFX | Defqon |